<mxfile host="65bd71144e" scale="5" border="0">
    <diagram id="oFBlPGIffjYmCPDAOWzN" name="Page-1">
        <mxGraphModel dx="1308" dy="1147" grid="0" gridSize="10" guides="1" tooltips="1" connect="1" arrows="1" fold="1" page="1" pageScale="1" pageWidth="1169" pageHeight="827" background="#ffffff" math="0" shadow="0">
            <root>
                <mxCell id="0"/>
                <mxCell id="1" parent="0"/>
                <mxCell id="2" value="" style="shape=parallelogram;perimeter=parallelogramPerimeter;whiteSpace=wrap;html=1;fixedSize=1;rotation=90;fontStyle=1;connectable=0;strokeWidth=4;fontSize=30;" parent="1" vertex="1">
                    <mxGeometry x="412.5" y="391.5" width="155" height="104" as="geometry"/>
                </mxCell>
                <mxCell id="5" value="" style="endArrow=none;html=1;strokeWidth=4;fontSize=30;exitX=0.184;exitY=1.042;exitDx=0;exitDy=0;exitPerimeter=0;" parent="1" source="18" edge="1">
                    <mxGeometry width="50" height="50" relative="1" as="geometry">
                        <mxPoint x="333" y="461" as="sourcePoint"/>
                        <mxPoint x="437" y="367" as="targetPoint"/>
                    </mxGeometry>
                </mxCell>
                <mxCell id="6" value="" style="endArrow=none;html=1;strokeWidth=4;fontSize=30;" parent="1" edge="1">
                    <mxGeometry width="50" height="50" relative="1" as="geometry">
                        <mxPoint x="343" y="597" as="sourcePoint"/>
                        <mxPoint x="343" y="457" as="targetPoint"/>
                    </mxGeometry>
                </mxCell>
                <mxCell id="7" value="" style="endArrow=none;html=1;strokeWidth=4;fontSize=30;" parent="1" edge="1">
                    <mxGeometry width="50" height="50" relative="1" as="geometry">
                        <mxPoint x="343" y="597" as="sourcePoint"/>
                        <mxPoint x="438" y="500.5" as="targetPoint"/>
                    </mxGeometry>
                </mxCell>
                <mxCell id="8" value="" style="endArrow=classic;html=1;exitX=0;exitY=1;exitDx=0;exitDy=0;strokeWidth=4;fontSize=30;" parent="1" source="2" edge="1">
                    <mxGeometry width="50" height="50" relative="1" as="geometry">
                        <mxPoint x="483" y="667" as="sourcePoint"/>
                        <mxPoint x="663" y="407" as="targetPoint"/>
                    </mxGeometry>
                </mxCell>
                <mxCell id="9" value="" style="endArrow=classic;html=1;fillColor=#f8cecc;strokeColor=#33FF33;strokeWidth=4;fontSize=30;" parent="1" edge="1">
                    <mxGeometry width="50" height="50" relative="1" as="geometry">
                        <mxPoint x="437" y="367" as="sourcePoint"/>
                        <mxPoint x="373" y="607" as="targetPoint"/>
                    </mxGeometry>
                </mxCell>
                <mxCell id="10" value="" style="endArrow=classic;html=1;strokeColor=#0000CC;exitX=0.052;exitY=1;exitDx=0;exitDy=0;exitPerimeter=0;strokeWidth=4;fontSize=30;" parent="1" edge="1">
                    <mxGeometry width="50" height="50" relative="1" as="geometry">
                        <mxPoint x="437" y="370.05999999999995" as="sourcePoint"/>
                        <mxPoint x="437" y="677" as="targetPoint"/>
                    </mxGeometry>
                </mxCell>
                <mxCell id="11" value="" style="endArrow=classic;html=1;strokeColor=#FF0000;strokeWidth=4;fontSize=30;" parent="1" edge="1">
                    <mxGeometry width="50" height="50" relative="1" as="geometry">
                        <mxPoint x="439" y="367" as="sourcePoint"/>
                        <mxPoint x="693" y="487" as="targetPoint"/>
                    </mxGeometry>
                </mxCell>
                <mxCell id="13" value="&lt;font color=&quot;#ff0000&quot; style=&quot;&quot;&gt;x&lt;sub style=&quot;&quot;&gt;&lt;font style=&quot;font-size: 15px;&quot;&gt;2&lt;/font&gt;&lt;/sub&gt;&lt;/font&gt;" style="text;html=1;align=center;verticalAlign=middle;resizable=0;points=[];autosize=1;strokeColor=none;fillColor=none;strokeWidth=4;fontSize=30;" parent="1" vertex="1">
                    <mxGeometry x="703" y="472.5" width="41" height="53" as="geometry"/>
                </mxCell>
                <mxCell id="14" value="" style="endArrow=none;dashed=1;html=1;strokeColor=#0000CC;fontSize=30;fontColor=#0000CC;strokeWidth=4;" parent="1" edge="1">
                    <mxGeometry width="50" height="50" relative="1" as="geometry">
                        <mxPoint x="307" y="607" as="sourcePoint"/>
                        <mxPoint x="437" y="367" as="targetPoint"/>
                    </mxGeometry>
                </mxCell>
                <mxCell id="15" value="" style="endArrow=none;dashed=1;html=1;dashPattern=1 3;strokeWidth=4;strokeColor=#0000CC;fontSize=30;fontColor=#0000CC;" parent="1" edge="1">
                    <mxGeometry width="50" height="50" relative="1" as="geometry">
                        <mxPoint x="393" y="457" as="sourcePoint"/>
                        <mxPoint x="633" y="457" as="targetPoint"/>
                    </mxGeometry>
                </mxCell>
                <mxCell id="16" value="" style="curved=1;endArrow=classic;html=1;strokeColor=#FF8000;fontSize=30;fontColor=#0000CC;strokeWidth=4;" parent="1" edge="1">
                    <mxGeometry width="50" height="50" relative="1" as="geometry">
                        <mxPoint x="403" y="482" as="sourcePoint"/>
                        <mxPoint x="503" y="397" as="targetPoint"/>
                        <Array as="points">
                            <mxPoint x="443" y="482"/>
                            <mxPoint x="483" y="472"/>
                            <mxPoint x="505" y="437"/>
                        </Array>
                    </mxGeometry>
                </mxCell>
                <mxCell id="17" value="&lt;font color=&quot;#000000&quot; style=&quot;font-size: 30px;&quot;&gt;A&lt;/font&gt;" style="text;html=1;align=center;verticalAlign=middle;resizable=0;points=[];autosize=1;strokeColor=none;fillColor=none;fontSize=30;fontColor=#0000CC;strokeWidth=4;" parent="1" vertex="1">
                    <mxGeometry x="338" y="547" width="40" height="50" as="geometry"/>
                </mxCell>
                <mxCell id="18" value="&lt;b style=&quot;font-size: 30px;&quot;&gt;&lt;font color=&quot;#000000&quot; style=&quot;font-size: 30px;&quot;&gt;B&lt;/font&gt;&lt;/b&gt;" style="text;html=1;align=center;verticalAlign=middle;resizable=0;points=[];autosize=1;strokeColor=none;fillColor=none;fontSize=30;fontColor=#0000CC;strokeWidth=4;" parent="1" vertex="1">
                    <mxGeometry x="333" y="405.5" width="50" height="50" as="geometry"/>
                </mxCell>
                <mxCell id="19" value="&lt;b style=&quot;font-size: 30px;&quot;&gt;&lt;font color=&quot;#000000&quot; style=&quot;font-size: 30px;&quot;&gt;C&lt;/font&gt;&lt;/b&gt;" style="text;html=1;align=center;verticalAlign=middle;resizable=0;points=[];autosize=1;strokeColor=none;fillColor=none;fontSize=30;fontColor=#0000CC;strokeWidth=4;" parent="1" vertex="1">
                    <mxGeometry x="543" y="355.5" width="50" height="50" as="geometry"/>
                </mxCell>
                <mxCell id="20" value="&lt;b style=&quot;font-size: 30px;&quot;&gt;&lt;font color=&quot;#000000&quot; style=&quot;font-size: 30px;&quot;&gt;D&lt;/font&gt;&lt;/b&gt;" style="text;html=1;align=center;verticalAlign=middle;resizable=0;points=[];autosize=1;strokeColor=none;fillColor=none;fontSize=30;fontColor=#0000CC;strokeWidth=4;" parent="1" vertex="1">
                    <mxGeometry x="523" y="517" width="50" height="50" as="geometry"/>
                </mxCell>
                <mxCell id="21" value="&lt;b style=&quot;font-size: 30px;&quot;&gt;&lt;font color=&quot;#000000&quot; style=&quot;font-size: 30px;&quot;&gt;O&lt;/font&gt;&lt;/b&gt;" style="text;html=1;align=center;verticalAlign=middle;resizable=0;points=[];autosize=1;strokeColor=none;fillColor=none;fontSize=30;fontColor=#0000CC;strokeWidth=4;" parent="1" vertex="1">
                    <mxGeometry x="378" y="322" width="50" height="50" as="geometry"/>
                </mxCell>
                <mxCell id="22" value="&lt;b style=&quot;font-size: 30px;&quot;&gt;&lt;font color=&quot;#000000&quot; style=&quot;font-size: 30px;&quot;&gt;P&lt;/font&gt;&lt;/b&gt;" style="text;html=1;align=center;verticalAlign=middle;resizable=0;points=[];autosize=1;strokeColor=none;fillColor=none;fontSize=30;fontColor=#0000CC;strokeWidth=4;" parent="1" vertex="1">
                    <mxGeometry x="603" y="457" width="40" height="50" as="geometry"/>
                </mxCell>
                <mxCell id="23" value="&lt;b style=&quot;font-size: 30px;&quot;&gt;&lt;font color=&quot;#000000&quot; style=&quot;font-size: 30px;&quot;&gt;Q&lt;/font&gt;&lt;/b&gt;" style="text;html=1;align=center;verticalAlign=middle;resizable=0;points=[];autosize=1;strokeColor=none;fillColor=none;fontSize=30;fontColor=#0000CC;strokeWidth=4;" parent="1" vertex="1">
                    <mxGeometry x="362.5" y="418.5" width="50" height="50" as="geometry"/>
                </mxCell>
                <mxCell id="25" value="&lt;font color=&quot;#ff00ff&quot; style=&quot;font-size: 26px;&quot;&gt;1&lt;/font&gt;" style="text;html=1;align=center;verticalAlign=middle;resizable=0;points=[];autosize=1;strokeColor=none;fillColor=none;fontSize=30;fontColor=#000000;strokeWidth=4;" parent="1" vertex="1">
                    <mxGeometry x="567.5" y="391.5" width="40" height="50" as="geometry"/>
                </mxCell>
                <mxCell id="27" value="&lt;font color=&quot;#ff00ff&quot; style=&quot;font-size: 24px;&quot;&gt;2&lt;/font&gt;" style="text;html=1;align=center;verticalAlign=middle;resizable=0;points=[];autosize=1;strokeColor=none;fillColor=none;fontSize=30;fontColor=#000000;strokeWidth=2;" parent="1" vertex="1">
                    <mxGeometry x="333" y="455.5" width="40" height="50" as="geometry"/>
                </mxCell>
                <mxCell id="31" value="" style="curved=1;endArrow=classic;html=1;strokeColor=#FF00FF;fontSize=30;fontColor=#0000CC;strokeWidth=2;" parent="1" edge="1">
                    <mxGeometry width="50" height="50" relative="1" as="geometry">
                        <mxPoint x="577.5" y="391.5" as="sourcePoint"/>
                        <mxPoint x="567.5" y="431.5" as="targetPoint"/>
                        <Array as="points">
                            <mxPoint x="587.5" y="411.5"/>
                            <mxPoint x="567.5" y="431.5"/>
                        </Array>
                    </mxGeometry>
                </mxCell>
                <mxCell id="33" value="" style="endArrow=classic;html=1;fillColor=#f8cecc;strokeColor=#33FF33;strokeWidth=4;fontSize=30;" parent="1" edge="1">
                    <mxGeometry width="50" height="50" relative="1" as="geometry">
                        <mxPoint x="437" y="367" as="sourcePoint"/>
                        <mxPoint x="295" y="166" as="targetPoint"/>
                    </mxGeometry>
                </mxCell>
                <mxCell id="35" value="" style="curved=1;endArrow=classic;html=1;strokeColor=#FF00FF;fontSize=30;fontColor=#0000CC;strokeWidth=2;" parent="1" edge="1">
                    <mxGeometry width="50" height="50" relative="1" as="geometry">
                        <mxPoint x="353" y="449.25" as="sourcePoint"/>
                        <mxPoint x="383" y="475" as="targetPoint"/>
                        <Array as="points">
                            <mxPoint x="355" y="459.25"/>
                            <mxPoint x="355" y="468"/>
                            <mxPoint x="363" y="475"/>
                        </Array>
                    </mxGeometry>
                </mxCell>
                <mxCell id="45" value="" style="endArrow=classic;html=1;strokeWidth=4;fontSize=30;" parent="1" edge="1">
                    <mxGeometry width="50" height="50" relative="1" as="geometry">
                        <mxPoint x="437" y="367" as="sourcePoint"/>
                        <mxPoint x="613" y="297" as="targetPoint"/>
                    </mxGeometry>
                </mxCell>
                <mxCell id="46" value="" style="endArrow=classic;html=1;strokeWidth=4;fontSize=30;" parent="1" edge="1">
                    <mxGeometry width="50" height="50" relative="1" as="geometry">
                        <mxPoint x="438" y="366.0000000000001" as="sourcePoint"/>
                        <mxPoint x="438" y="107" as="targetPoint"/>
                    </mxGeometry>
                </mxCell>
                <mxCell id="47" value="&lt;font style=&quot;font-size: 30px;&quot;&gt;&lt;b&gt;z&lt;sub style=&quot;&quot;&gt;0&lt;/sub&gt;&lt;/b&gt;&lt;/font&gt;" style="text;html=1;strokeColor=none;fillColor=none;align=center;verticalAlign=middle;whiteSpace=wrap;rounded=0;strokeWidth=4;fontSize=26;" parent="1" vertex="1">
                    <mxGeometry x="448" y="107" width="60" height="30" as="geometry"/>
                </mxCell>
                <mxCell id="48" value="&lt;font style=&quot;font-size: 30px;&quot;&gt;&lt;b&gt;y&lt;sub style=&quot;&quot;&gt;0&lt;/sub&gt;&lt;/b&gt;&lt;/font&gt;" style="text;html=1;strokeColor=none;fillColor=none;align=center;verticalAlign=middle;whiteSpace=wrap;rounded=0;strokeWidth=4;fontSize=26;" parent="1" vertex="1">
                    <mxGeometry x="613" y="277" width="60" height="30" as="geometry"/>
                </mxCell>
                <mxCell id="49" value="&lt;font style=&quot;font-size: 30px;&quot;&gt;&lt;b&gt;x&lt;sub style=&quot;&quot;&gt;0&lt;/sub&gt;&lt;/b&gt;&lt;/font&gt;" style="text;html=1;strokeColor=none;fillColor=none;align=center;verticalAlign=middle;whiteSpace=wrap;rounded=0;strokeWidth=4;fontSize=26;" parent="1" vertex="1">
                    <mxGeometry x="653" y="399" width="60" height="30" as="geometry"/>
                </mxCell>
                <mxCell id="52" value="&lt;font color=&quot;#00ff00&quot; style=&quot;&quot;&gt;x&lt;sub style=&quot;&quot;&gt;&lt;font style=&quot;font-size: 18px;&quot;&gt;2&lt;/font&gt;&lt;/sub&gt;&lt;sup style=&quot;font-size: 30px;&quot;&gt;a&lt;/sup&gt;&lt;/font&gt;" style="text;html=1;strokeColor=none;fillColor=none;align=center;verticalAlign=middle;whiteSpace=wrap;rounded=0;fontSize=30;strokeWidth=4;" parent="1" vertex="1">
                    <mxGeometry x="328" y="607" width="100" height="30" as="geometry"/>
                </mxCell>
            </root>
        </mxGraphModel>
    </diagram>
</mxfile>